<svg version="1.1" width="271" height="279" viewBox="-1 -1 271 279" xmlns="http://www.w3.org/2000/svg" xmlns:xlink="http://www.w3.org/1999/xlink">
  <!-- Exported by Scratch - http://scratch.mit.edu/ -->
  <path id="ID0.43046707892790437" fill="#FF0000" stroke="none" d="M 162 175 L 265 175 L 265 186 L 162 186 L 162 175 Z " transform="matrix(1, 0, 0, 1, -155, -131)"/>
  <path id="ID0.45990739157423377" fill="#FF0000" stroke="none" d="M 167 205 L 294 205 L 294 218 L 167 218 L 167 205 Z " transform="matrix(1, 0, 0, 1, -42, -81)"/>
  <path id="ID0.9882468958385289" fill="#FF0000" stroke="none" d="M 63 270 L 183 270 L 183 280 L 63 280 L 63 270 Z " transform="matrix(1, 0, 0, 1, -63, -53)"/>
  <path id="ID0.6977369440719485" fill="#00CC44" stroke="none" d="M 266 311 L 293 311 L 293 337 L 266 337 L 266 311 Z " transform="matrix(1, 0, 0, 1, -39, -60)"/>
  <path id="ID0.3975583231076598" fill="#FF0000" stroke="none" d="M 119 221 L 126 221 L 126 297 L 119 297 L 119 221 Z " transform="matrix(1, 0, 0, 1, -9, -118)"/>
  <path id="ID0.4543618820607662" fill="#FF0000" stroke="none" d="M 113 235 L 120 235 L 120 312 L 113 312 L 113 235 Z " transform="matrix(1, 0, 0, 1, -80, -135)"/>
  <path id="ID0.5302315163426101" fill="#FF0000" stroke="none" d="M 227 278 L 234 278 L 234 351 L 227 351 L 227 278 Z " transform="matrix(1, 0, 0, 1, -39, -108)"/>
  <path id="ID0.45173473935574293" fill="#FF0000" stroke="none" d="M 181 108 L 308 108 L 308 116 L 181 116 L 181 108 Z " transform="matrix(1, 0, 0, 1, -39, -108)"/>
</svg>