<svg version="1.1" width="176" height="171" viewBox="-1 15 176 171" xmlns="http://www.w3.org/2000/svg" xmlns:xlink="http://www.w3.org/1999/xlink">
  <!-- Exported by Scratch - http://scratch.mit.edu/ -->
  <path id="ID0.64897071570158" fill="#009933" stroke="#009933" stroke-width="6" stroke-linecap="round" d="M 160 111.500 L 166.500 105.500 L 172.500 102.500 L 178 100.500 L 278.500 103 L 287.500 103 L 297 103.500 L 304 107 L 310.500 113 L 313.500 117 L 313.500 119 L 314 125.500 L 314 131.500 L 312 247 L 308.500 255 L 302.500 260 L 294.500 262.500 L 287 263 L 176 262.500 L 169.500 260.500 L 162.500 256.500 L 159 253 L 155.500 246.500 L 155 239.500 L 157 122.500 L 159 116 L 160 111.500 Z " transform="matrix(1.0079411268234253, -0.004721035715192556, 0.004507177043706179, 0.9622823596000671, -146.35, -72.25)"/>
  <path id="ID0.64897071570158" fill="#01ED2E" stroke="#009933" stroke-width="6" stroke-linecap="round" d="M 160 111.500 L 166.500 105.500 L 172.500 102.500 L 178 100.500 L 278.500 103 L 287.500 103 L 297 103.500 L 304 107 L 310.500 113 L 313.500 117 L 313.500 119 L 314 125.500 L 314 131.500 L 312 247 L 308.500 255 L 302.500 260 L 294.500 262.500 L 287 263 L 176 262.500 L 169.500 260.500 L 162.500 256.500 L 159 253 L 155.500 246.500 L 155 239.500 L 157 122.500 L 159 116 L 160 111.500 Z " transform="matrix(0.9999890327453613, -0.0046837893314659595, 0.0046837893314659595, 0.9999890327453613, -152, -79.75)"/>
  <path id="ID0.9481938644312322" fill="#009933" stroke="none" d="M 313.250 157 L 326.250 157 L 326.250 185.250 L 313.250 185.250 L 313.250 157 Z " transform="matrix(1, 0, 0, 1, -154, -66)"/>
  <path id="ID0.26270311092957854" fill="none" stroke="#00CC44" stroke-width="2" stroke-linecap="round" d="M 240.500 129.500 L 312.500 167.750 " transform="matrix(1, 0, 0, 1, -164, -75)"/>
  <path id="ID0.8459519362077117" fill="#00CC44" stroke="none" stroke-linecap="round" d="M 33.050 103.650 L 239.150 94.400 L 305.150 147.500 L 315.550 158 L 315.900 166.850 L 302.050 175.300 L 266.750 188 L 212.450 207.300 L 154.150 193.200 L 33.050 103.650 Z " transform="matrix(0.4383009970188141, 0.2915770709514618, -0.5538799166679382, 0.8325966000556946, 106.7, -55.35)"/>
  <path id="ID0.1643297541886568" fill="none" stroke="#00CC44" stroke-width="2" stroke-linecap="round" d="M 223.250 233.750 L 239.500 252.500 " transform="matrix(1, 0, 0, 1, -155.75, -82)"/>
  <text id="ID0.9352780571207404" fill="#FFFFFF" x="196" y="174.25" text-anchor="start" font-family="Scratch" font-size="22" transform="matrix(9.41489315032959, 0, 0, 9.41489315032959, 10.5, 0.25)">L</text>
  <path id="ID0.8196852235123515" fill="#00CC44" stroke="none" d="M 256 231.250 L 260.500 231.250 L 260.500 231.250 L 256 231.250 L 256 231.250 Z " transform="matrix(1, 0, 0, 1, -164, -75)"/>
</svg>