<svg version="1.1" width="440" height="318" viewBox="-1 -1 440 318" xmlns="http://www.w3.org/2000/svg" xmlns:xlink="http://www.w3.org/1999/xlink">
  <!-- Exported by Scratch - http://scratch.mit.edu/ -->
  <path id="ID0.1088061835616827" fill="#FF0000" stroke="none" d="M 90.500 307 L 147.500 307 L 147.500 311 L 90.500 311 L 90.500 307 Z " transform="matrix(1, 0, 0, 1, -42, -43)"/>
  <path id="ID0.06585361482575536" fill="#FF0000" stroke="none" d="M 47.500 269 L 92.500 269 L 92.500 273 L 47.500 273 L 47.500 269 Z " transform="matrix(1, 0, 0, 1, -42, -43)"/>
  <path id="ID0.26621491089463234" fill="#FF0000" stroke="none" d="M 63 235.500 L 144.500 235.500 L 144.500 239 L 63 239 L 63 235.500 Z " transform="matrix(1, 0, 0, 1, -42, -43)"/>
  <path id="ID0.7357285884208977" fill="#FF0000" stroke="none" d="M 48.500 195.500 L 105.500 195.500 L 105.500 201 L 48.500 201 L 48.500 195.500 Z " transform="matrix(1, 0, 0, 1, -42, -43)"/>
  <path id="ID0.4274526396766305" fill="#FF0000" stroke="none" d="M 128.500 153.500 L 132.500 153.500 L 132.500 197.500 L 128.500 197.500 L 128.500 153.500 Z " transform="matrix(1, 0, 0, 1, -42, -43)"/>
  <path id="ID0.878974452149123" fill="#FF0000" stroke="none" d="M 103 156.500 L 131.500 156.500 L 131.500 161.500 L 103 161.500 L 103 156.500 Z " transform="matrix(1, 0, 0, 1, -42, -43)"/>
  <path id="ID0.19617266533896327" fill="#FF0000" stroke="none" d="M 54 156.500 L 87.500 156.500 L 87.500 160.500 L 54 160.500 L 54 156.500 Z " transform="matrix(1, 0, 0, 1, -53.5, -42.5)"/>
  <path id="ID0.9448553859256208" fill="#FF0000" stroke="none" d="M 52.500 115.500 L 122.500 115.500 L 122.500 120.500 L 52.500 120.500 L 52.500 115.500 Z " transform="matrix(1, 0, 0, 1, -50.5, -43.5)"/>
  <path id="ID0.7329011983238161" fill="#FF0000" stroke="none" d="M 60.500 43.500 L 65 43.500 L 65 102.500 L 60.500 102.500 L 60.500 43.500 Z " transform="matrix(1, 0, 0, 1, -49.5, -43)"/>
  <path id="ID0.3840919523499906" fill="#FF0000" stroke="none" d="M 66.500 48 L 422 48 L 422 52.500 L 66.500 52.500 L 66.500 48 Z " transform="matrix(1, 0, 0, 1, -56, -47.5)"/>
  <path id="ID0.42038009222596884" fill="#FF0000" stroke="none" d="M 137.500 104 L 146.500 104 L 146.500 360 L 137.500 360 L 137.500 104 Z " transform="matrix(1, 0, 0, 1, -42, -43)"/>
  <path id="ID0.8035672167316079" fill="#FF0000" stroke="none" d="M 166.500 114 L 244 114 L 244 120.500 L 166.500 120.500 L 166.500 114 Z " transform="matrix(1, 0, 0, 1, -42, -43)"/>
  <path id="ID0.9093689834699035" fill="#FF0000" stroke="none" d="M 146 132 L 164.500 132 L 164.500 205.500 L 146 205.500 L 146 132 Z " transform="matrix(1, 0, 0, 0, 194.5, 272)"/>
  <path id="ID0.021528232377022505" fill="#FF0000" stroke="none" d="M 177.500 162.500 L 239 162.500 L 239 169 L 177.500 169 L 177.500 162.500 Z " transform="matrix(0.9837398529052734, 0, 0, 1, -32.15, -39)"/>
  <path id="ID0.586100738029927" fill="#FF0000" stroke="none" d="M 162 141 L 192 141 L 192 146.500 L 162 146.500 L 162 141 Z " transform="matrix(1, 0, 0, 1, -42, -43)"/>
  <path id="ID0.6237357906065881" fill="#FF0000" stroke="none" d="M 208.500 120.500 L 214.500 120.500 L 214.500 130 L 208.500 130 L 208.500 120.500 Z " transform="matrix(1, 0, 0, -0.42105263471603394, -42, 127.5)"/>
  <path id="ID0.85521833691746" fill="#FF0000" stroke="none" d="M 190 141 L 209.500 141 L 209.500 146.500 L 190 146.500 L 190 141 Z " transform="matrix(0.4615384638309479, 0, 0, 1, 60.3, -43)"/>
  <path id="ID0.33184694219380617" fill="#FF0000" stroke="none" d="M 226 119.500 L 232 119.500 L 232 165.500 L 226 165.500 L 226 119.500 Z " transform="matrix(1, 0, 0, 1, -42, -43)"/>
  <path id="ID0.059304467868059874" fill="#FF0000" stroke="none" d="M 178.500 167.500 L 186 167.500 L 186 235 L 178.500 235 L 178.500 167.500 Z " transform="matrix(1, 0, 0, 1, -36, -43)"/>
  <path id="ID0.7427530945278704" fill="#FF0000" stroke="none" d="M 144 141 L 174 141 L 174 146.500 L 144 146.500 L 144 141 Z " transform="matrix(1, 0, 0, 1, -42, -43)"/>
  <path id="ID0.5441785510629416" fill="#FF0000" stroke="none" d="M 146.500 170.500 L 164 170.500 L 164 174.500 L 146.500 174.500 L 146.500 170.500 Z " transform="matrix(1, 0, 0, 1, -42, -43)"/>
  <path id="ID0.769469462800771" fill="#FF0000" stroke="none" d="M 163.500 200.500 L 180 200.500 L 180 205 L 163.500 205 L 163.500 200.500 Z " transform="matrix(1, 0, 0, 1, -36.5, -43)"/>
  <path id="ID0.29645801428705454" fill="#FF0000" stroke="none" d="M 143.500 237 L 165.500 237 L 165.500 240.500 L 143.500 240.500 L 143.500 237 Z " transform="matrix(0.75, 0, 0, 1, -6.25, -43)"/>
  <path id="ID0.6399807981215417" fill="#FF0000" stroke="none" d="M 143.500 256.500 L 212.500 256.500 L 212.500 262.500 L 143.500 262.500 L 143.500 256.500 Z " transform="matrix(0.8840579986572266, 0, 0, 0.8840579986572266, -25.45, -13.35)"/>
  <path id="ID0.11520338617265224" fill="#FF0000" stroke="none" d="M 177.500 164.500 L 182 164.500 L 182 235 L 177.500 235 L 177.500 164.500 Z " transform="matrix(0.8888888955116272, 0, 0, 0.8888888955116272, -14.85, -17.4)"/>
  <path id="ID0.6093293447047472" fill="#FF0000" stroke="none" d="M 227.500 161.500 L 232.500 161.500 L 232.500 305 L 227.500 305 L 227.500 161.500 Z " transform="matrix(1, 0, 0, 1, -42, -43)"/>
  <path id="ID0.9894416141323745" fill="#FF0000" stroke="none" d="M 163 296 L 229 296 L 229 305 L 163 305 L 163 296 Z " transform="matrix(1, 0, 0, 1, -42, -43)"/>
  <text id="ID0.09213258977979422" fill="#FF0000" x="275.5" y="136.2" text-anchor="start" font-family="Scratch" font-size="22" transform="matrix(1, 0, 0, 1, 231.5, 76)">GLGLGLGLGLGLGLGLGL</text>
  <text id="ID0.13953507831320167" fill="#FF0000" x="330" y="321.7" text-anchor="start" font-family="Scratch" font-size="22" transform="matrix(1, 0, 0, 1, 233, 253.5)">GG GG GG GG GG GG</text>
  <path id="ID0.8956999168731272" fill="#00CC44" stroke="none" d="M 425.500 335 L 480 335 L 480 360 L 425.500 360 L 425.500 335 Z " transform="matrix(1, 0, 0, 1, -41, -43)"/>
</svg>