<svg version="1.1" width="245" height="245" viewBox="-1 -1 245 245" xmlns="http://www.w3.org/2000/svg" xmlns:xlink="http://www.w3.org/1999/xlink">
  <!-- Exported by Scratch - http://scratch.mit.edu/ -->
  <path id="ID0.4371084701269865" fill="#666666" stroke="none" d="M 0 153 L 213 153 L 213 366 L 0 366 L 0 153 Z " transform="matrix(1, 0, 0, 1, 17.5, -141)"/>
  <path id="ID0.5464253635145724" fill="#FF0000" stroke="none" d="M 133.500 64 L 143.500 64 L 143.500 297 L 133.500 297 L 133.500 64 Z " transform="matrix(1, 0, 0, 1, -126, -61)"/>
  <path id="ID0.5464253635145724" fill="#FF0000" stroke="none" d="M 133.500 64 L 143.500 64 L 143.500 297 L 133.500 297 L 133.500 64 Z " transform="matrix(0.0070091737434268, 0.9999754428863525, -0.9999754428863525, 0.0070091737434268, 303.5, -132.15)"/>
  <path id="ID0.5464253635145724" fill="#FF0000" stroke="none" d="M 133.500 64 L 143.500 64 L 143.500 297 L 133.500 297 L 133.500 64 Z " transform="matrix(-0.999996542930603, -0.002639155136421323, 0.002639155136421323, -0.999996542930603, 372.9, 300.35)"/>
  <path id="ID0.5464253635145724" fill="#FF0000" stroke="none" d="M 133.500 64 L 143.500 64 L 143.500 297 L 133.500 297 L 133.500 64 Z " transform="matrix(0.0070091737434268, 0.9999754428863525, -0.9999754428863525, 0.0070091737434268, 304.45, 89.25)"/>
  <path id="ID0.5859477734193206" fill="#666666" stroke="none" d="M 126 61 L 369 61 L 369 304 L 126 304 L 126 61 Z " transform="matrix(1, 0, 0, 1, -126, -61)"/>
</svg>