<svg xmlns="http://www.w3.org/2000/svg" xmlns:xlink="http://www.w3.org/1999/xlink" version="1.1" width="70.5" height="32.015625" viewBox="0.25 -2.2406249046325684 70.5 32.015625">
  <!-- Exported by Scratch - http://scratch.mit.edu/ -->
  <g id="ID0.9980709129013121">
    <path id="ID0.7226293026469648" fill="#E5E5E5" stroke="#E5E5E5" stroke-width="2" d="M 2.4 3 L 67.75 3 L 67.75 27.25 L 2.4 27.25 L 2.4 3 Z "/>
    <path id="ID0.5560490870848298" fill="#CCCCCC" stroke="#CCCCCC" stroke-width="2" stroke-linecap="round" d="M 16.9 27.2 C 15.535 27.371 18.283 26.869 19.25 26.7 C 21.618 26.286 24.017 26.021 26.4 25.7 C 27.73 25.521 29.068 25.364 30.4 25.2 C 31.099 25.114 31.807 25.077 32.5 24.95 C 33.175 24.826 33.761 24.586 34.5 24.45 C 37.456 23.908 40.445 23.5 43.4 22.95 C 44.742 22.7 46.068 22.351 47.4 22.05 C 48.133 21.885 48.869 21.724 49.6 21.55 C 50.268 21.391 50.942 21.247 51.6 21.05 C 52.276 20.847 52.922 20.546 53.6 20.35 C 54.306 20.146 55.049 20.07 55.75 19.85 C 56.435 19.636 57.087 19.324 57.75 19.05 C 58.419 18.774 59.108 18.535 59.75 18.2 C 61.026 17.534 62.295 16.838 63.5 16.05 C 64.083 15.668 64.547 15.125 65.1 14.7 C 65.631 14.292 66.204 13.938 66.75 13.55 C 67.303 13.156 68.063 11.878 68.4 12.35 C 69.063 13.278 68.672 15.015 68.75 16.35 C 68.789 17.015 68.75 17.684 68.75 18.35 C 68.75 20.415 68.75 22.485 68.75 24.55 C 68.75 25.216 69.108 25.989 68.75 26.55 C 68.382 27.128 67.571 27.311 66.9 27.45 C 66.247 27.586 65.567 27.358 64.9 27.35 C 62.802 27.325 60.698 27.35 58.6 27.35 C 55.77 27.35 52.93 27.39 50.1 27.35 C 49.392 27.34 48.808 27.21 48.1 27.2 C 45.27 27.16 42.431 27.2 39.6 27.2 C 37.569 27.2 35.531 27.2 33.5 27.2 C 32.834 27.2 32.166 27.175 31.5 27.2 C 30.833 27.225 30.167 27.308 29.5 27.35 C 28.834 27.392 28.424 27.443 27.5 27.45 C 23.804 27.478 19.66 27.746 16.4 27.45 Z "/>
    <path id="ID0.8735373928211629" fill="none" stroke="#FFFFFF" stroke-width="2" stroke-linecap="round" d="M 10.95 5.45 L 4.55 5.45 L 4.55 8.6 "/>
  </g>
  <text id="ID0.48820127127692103" fill="#000000" text-anchor="start" font-family="Sans Serif" font-size="22" transform="matrix(1 0 0 1 8.5 -2.1)" stroke-width="1" alignment-baseline="text-before-edge" xml:space="preserve"><tspan x="0" style="white-space: pre" dy="1.13em">Back</tspan></text>
  <path id="ID0.8647613758221269" fill="none" stroke="#000000" stroke-width="2" d="M 1.25 1.75 L 69.75 1.75 L 69.75 28.5 L 1.25 28.5 L 1.25 1.75 Z "/>
</svg>