<svg xmlns="http://www.w3.org/2000/svg" xmlns:xlink="http://www.w3.org/1999/xlink" version="1.1" width="69.82059478759766" height="32.015625" viewBox="-0.03849995136260986 -2.2406249046325684 69.82059478759766 32.015625">
  <!-- Exported by Scratch - http://scratch.mit.edu/ -->
  <g id="ID0.9980709129013121">
    <path id="ID0.7226293026469648" fill="#E5E5E5" stroke="#E5E5E5" stroke-width="2" d="M 2.2 2.9 L 67.55 2.9 L 67.55 27.15 L 2.2 27.15 L 2.2 2.9 Z "/>
    <path id="ID0.5560490870848298" fill="#CCCCCC" stroke="#CCCCCC" stroke-width="2" stroke-linecap="round" d="M 16.7 27.1 C 15.335 27.271 18.083 26.769 19.05 26.6 C 21.418 26.186 23.817 25.921 26.2 25.6 C 27.53 25.421 28.868 25.264 30.2 25.1 C 30.899 25.014 31.607 24.977 32.3 24.85 C 32.975 24.726 33.561 24.486 34.3 24.35 C 37.256 23.808 40.245 23.4 43.2 22.85 C 44.542 22.6 45.868 22.251 47.2 21.95 C 47.933 21.785 48.669 21.624 49.4 21.45 C 50.068 21.291 50.742 21.147 51.4 20.95 C 52.076 20.747 52.722 20.446 53.4 20.25 C 54.106 20.046 54.849 19.97 55.55 19.75 C 56.235 19.536 56.887 19.224 57.55 18.95 C 58.219 18.674 58.908 18.435 59.55 18.1 C 60.826 17.434 62.095 16.738 63.3 15.95 C 63.883 15.568 64.347 15.025 64.9 14.6 C 65.431 14.192 66.004 13.838 66.55 13.45 C 67.103 13.056 67.863 11.778 68.2 12.25 C 68.863 13.178 68.472 14.915 68.55 16.25 C 68.589 16.915 68.55 17.584 68.55 18.25 C 68.55 20.315 68.55 22.385 68.55 24.45 C 68.55 25.116 68.908 25.889 68.55 26.45 C 68.182 27.028 67.371 27.211 66.7 27.35 C 66.047 27.486 65.367 27.258 64.7 27.25 C 62.602 27.225 60.498 27.25 58.4 27.25 C 55.57 27.25 52.73 27.29 49.9 27.25 C 49.192 27.24 48.608 27.11 47.9 27.1 C 45.07 27.06 42.231 27.1 39.4 27.1 C 37.369 27.1 35.331 27.1 33.3 27.1 C 32.634 27.1 31.966 27.075 31.3 27.1 C 30.633 27.125 29.967 27.208 29.3 27.25 C 28.634 27.292 28.224 27.343 27.3 27.35 C 23.604 27.378 19.46 27.646 16.2 27.35 Z "/>
    <path id="ID0.8735373928211629" fill="none" stroke="#FFFFFF" stroke-width="2" stroke-linecap="round" d="M 10.75 5.35 L 4.35 5.35 L 4.35 8.5 "/>
  </g>
  <text id="ID0.9593996275216341" fill="#000000" text-anchor="start" font-family="Sans Serif" font-size="22" transform="matrix(1 0 0 1 7 -2.1)" stroke-width="1" alignment-baseline="text-before-edge" xml:space="preserve"><tspan x="0" style="white-space: pre" dy="1.13em">Done</tspan></text>
  <path id="ID0.4502878999337554" fill="none" stroke="#000000" stroke-width="1.9658119678497314" d="M 0.9615 1.7167 L 68.7821 1.7167 L 68.7821 28.5009 L 0.9615 28.5009 L 0.9615 1.7167 Z "/>
</svg>