<svg xmlns="http://www.w3.org/2000/svg" xmlns:xlink="http://www.w3.org/1999/xlink" version="1.1" width="83.19001292187923" height="32.20563792187923" viewBox="-0.09500646093961462 -2.585631365572183 83.19001292187923 32.20563792187923">
  <!-- Exported by Scratch - http://scratch.mit.edu/ -->
  <g id="ID0.9980709129013121">
    <path id="ID0.7226293026469648" fill="#E5E5E5" stroke="#E5E5E5" stroke-width="2.1900129218792292" d="M 2.1801 3.1625 L 80.1693 3.1625 L 80.1693 27.0934 L 2.1801 27.0934 L 2.1801 3.1625 Z "/>
    <path id="ID0.5560490870848298" fill="#CCCCCC" stroke="#CCCCCC" stroke-width="2.1900129218792292" stroke-linecap="round" d="M 19.4741 27.0493 C 17.8451 27.2181 21.1246 26.7227 22.2786 26.5559 C 25.1046 26.1474 27.9676 25.8859 30.8115 25.5691 C 32.3987 25.3924 33.9955 25.2375 35.5851 25.0757 C 36.4193 24.9908 37.2642 24.9543 38.0913 24.8289 C 38.8968 24.7066 39.5961 24.4697 40.4781 24.3355 C 44.0058 23.8007 47.5729 23.398 51.0994 22.8553 C 52.701 22.6086 54.2834 22.2641 55.873 21.9671 C 56.7478 21.8043 57.6261 21.6454 58.4985 21.4737 C 59.2957 21.3168 60.1001 21.1747 60.8853 20.9803 C 61.6921 20.7799 62.463 20.4829 63.2722 20.2895 C 64.1147 20.0882 65.0014 20.0132 65.838 19.7961 C 66.6555 19.5849 67.4336 19.277 68.2248 19.0066 C 69.0232 18.7342 69.8454 18.4984 70.6116 18.1678 C 72.1344 17.5105 73.6488 16.8237 75.0869 16.0461 C 75.7826 15.6691 76.3364 15.1332 76.9963 14.7138 C 77.63 14.3112 78.3139 13.9618 78.9655 13.5789 C 79.6254 13.1901 80.5324 11.9289 80.9346 12.3947 C 81.7258 13.3105 81.2592 15.0247 81.3523 16.3421 C 81.3988 16.9984 81.3523 17.6586 81.3523 18.3158 C 81.3523 20.3536 81.3523 22.3964 81.3523 24.4342 C 81.3523 25.0914 81.7795 25.8543 81.3523 26.4079 C 80.9131 26.9783 79.9453 27.1589 79.1445 27.2961 C 78.3652 27.4303 77.5537 27.2053 76.7577 27.1974 C 74.2539 27.1727 71.743 27.1974 69.2392 27.1974 C 65.8619 27.1974 62.4726 27.2368 59.0952 27.1974 C 58.2503 27.1875 57.5533 27.0592 56.7084 27.0493 C 53.3311 27.0099 49.943 27.0493 46.5645 27.0493 C 44.1406 27.0493 41.7085 27.0493 39.2847 27.0493 C 38.4899 27.0493 37.6927 27.0247 36.8979 27.0493 C 36.1019 27.074 35.307 27.1559 34.511 27.1974 C 33.7162 27.2388 33.2269 27.2891 32.1242 27.2961 C 27.7134 27.3237 22.7679 27.5882 18.8774 27.2961 Z "/>
    <path id="ID0.8735373928211629" fill="none" stroke="#FFFFFF" stroke-width="2.1900129218792292" stroke-linecap="round" d="M 12.4292 5.6013 L 4.7914 5.6013 L 4.7914 8.7099 "/>
  </g>
  <text id="ID0.3070317986421287" fill="#000000" text-anchor="start" font-family="Sans Serif" font-size="22" transform="matrix(1 0 0 1 3.75 -2.35)" stroke-width="1" alignment-baseline="text-before-edge" xml:space="preserve"><tspan x="0" style="white-space: pre" dy="1.13em">Credits</tspan></text>
  <path id="ID0.9653981537558138" fill="none" stroke="#000000" stroke-width="2" d="M 1 2 L 82 2 L 82 28.5 L 1 28.5 L 1 2 Z "/>
</svg>