<svg xmlns="http://www.w3.org/2000/svg" xmlns:xlink="http://www.w3.org/1999/xlink" version="1.1" width="135.8707367463721" height="34.36136212784183" viewBox="-0.060368373186051594 -3.0509932778186197 135.8707367463721 34.36136212784183">
  <!-- Exported by Scratch - http://scratch.mit.edu/ -->
  <g id="ID0.9980709129013121">
    <path id="ID0.7226293026469648" fill="#E5E5E5" stroke="#E5E5E5" stroke-width="3.120736746372103" d="M 3.0649 3.35 L 131.6152 3.35 L 131.6152 27.6 L 3.0649 27.6 L 3.0649 3.35 Z "/>
    <path id="ID0.5560490870848298" fill="#CCCCCC" stroke="#CCCCCC" stroke-width="3.120736746372103" stroke-linecap="round" d="M 31.5853 27.55 C 28.9002 27.721 34.3058 27.219 36.208 27.05 C 40.8661 26.636 45.5852 26.371 50.2728 26.05 C 52.889 25.871 55.521 25.714 58.1412 25.55 C 59.5162 25.464 60.9089 25.427 62.2721 25.3 C 63.5999 25.176 64.7526 24.936 66.2063 24.8 C 72.0211 24.258 77.9008 23.85 83.7136 23.3 C 86.3534 23.05 88.9618 22.701 91.582 22.4 C 93.0239 22.235 94.4716 22.074 95.9096 21.9 C 97.2236 21.741 98.5495 21.597 99.8438 21.4 C 101.1736 21.197 102.4443 20.896 103.778 20.7 C 105.1668 20.496 106.6284 20.42 108.0073 20.2 C 109.3548 19.986 110.6373 19.674 111.9415 19.4 C 113.2575 19.124 114.6128 18.885 115.8757 18.55 C 118.3857 17.884 120.882 17.188 123.2523 16.4 C 124.3992 16.018 125.3119 15.475 126.3997 15.05 C 127.4442 14.642 128.5714 14.288 129.6454 13.9 C 130.7332 13.506 132.2282 12.228 132.8912 12.7 C 134.1954 13.628 133.4262 15.365 133.5796 16.7 C 133.6564 17.365 133.5796 18.034 133.5796 18.7 C 133.5796 20.765 133.5796 22.835 133.5796 24.9 C 133.5796 25.566 134.2839 26.339 133.5796 26.9 C 132.8558 27.478 131.2604 27.661 129.9405 27.8 C 128.656 27.936 127.3184 27.708 126.0063 27.7 C 121.8793 27.675 117.7405 27.7 113.6135 27.7 C 108.0466 27.7 102.4601 27.74 96.8932 27.7 C 95.5004 27.69 94.3517 27.56 92.9589 27.55 C 87.392 27.51 81.8074 27.55 76.2386 27.55 C 72.2434 27.55 68.2344 27.55 64.2392 27.55 C 62.9291 27.55 61.6151 27.525 60.305 27.55 C 58.993 27.575 57.6829 27.658 56.3708 27.7 C 55.0607 27.742 54.2542 27.793 52.4366 27.8 C 45.1662 27.828 37.0145 28.096 30.6017 27.8 Z "/>
    <path id="ID0.8735373928211629" fill="none" stroke="#FFFFFF" stroke-width="3.120736746372103" stroke-linecap="round" d="M 19.9129 5.8 L 7.3234 5.8 L 7.3234 8.95 "/>
  </g>
  <text id="ID0.020791086368262768" fill="#000000" text-anchor="start" font-family="Sans Serif" font-size="22" transform="matrix(1 0 0 1 5.75 -2.35)" stroke-width="1" alignment-baseline="text-before-edge" xml:space="preserve"><tspan x="0" style="white-space: pre" dy="1.13em">Instructions</tspan></text>
  <path id="ID0.07358512934297323" fill="none" stroke="#000000" stroke-width="2" d="M 1.5 1.75 L 134.25 1.75 L 134.25 29.75 L 1.5 29.75 L 1.5 1.75 Z "/>
</svg>