<svg xmlns="http://www.w3.org/2000/svg" xmlns:xlink="http://www.w3.org/1999/xlink" version="1.1" width="23.162066221237183" height="23.162066221237183" viewBox="0.6189669370651245 0.31896698474884033 23.162066221237183 23.162066221237183">
  <!-- Exported by Scratch - http://scratch.mit.edu/ -->
  <path id="ID0.6896235612221062" fill="#FFFF00" stroke="#000000" stroke-width="2" d="M 12.2 1.65 C 15.028 1.65 17.59 2.799 19.446 4.654 C 21.301 6.51 22.45 9.072 22.45 11.9 C 22.45 14.728 21.301 17.29 19.446 19.146 C 17.59 21.001 15.028 22.15 12.2 22.15 C 9.372 22.15 6.81 21.001 4.954 19.146 C 3.099 17.29 1.95 14.728 1.95 11.9 C 1.95 9.072 3.099 6.51 4.954 4.654 C 6.81 2.799 9.372 1.65 12.2 1.65 Z "/>
  <path id="ID0.21462269639596343" fill="none" stroke="#000000" stroke-width="1.5339234474001582" stroke-linecap="round" d="M 5.5798 11.7557 C 5.5798 11.7557 5.8937 13.0036 6.2076 13.5429 C 6.4846 14.0187 6.9019 14.392 7.3155 14.7344 C 7.7084 15.0593 8.1449 15.3389 8.608 15.5287 C 9.5423 15.9116 10.5113 16.215 11.4885 16.4422 C 12.0557 16.5741 12.6444 16.6217 13.2241 16.6011 C 13.7596 16.582 14.2944 16.4708 14.8121 16.3231 C 15.3202 16.1785 15.835 16.0109 16.2893 15.7273 C 16.7575 15.435 17.1172 14.9727 17.5449 14.6152 C 17.9415 14.284 18.4112 14.0465 18.7635 13.6621 C 19.231 13.1513 19.9822 11.9543 19.9822 11.9543 "/>
  <path id="ID0.6807764582335949" fill="none" stroke="#000000" stroke-width="2.6620662212371826" stroke-linecap="round" d="M 9.861 6.9287 L 10.2603 7.328 "/>
  <path id="ID0.5862307022325695" fill="none" stroke="#000000" stroke-width="2.4271080493927" stroke-linecap="round" d="M 14.3145 7.9107 L 14.6786 8.2748 "/>
</svg>