<svg xmlns="http://www.w3.org/2000/svg" xmlns:xlink="http://www.w3.org/1999/xlink" version="1.1" width="70" height="32.015625" viewBox="0.75 -2.7406249046325684 70 32.015625">
  <!-- Exported by Scratch - http://scratch.mit.edu/ -->
  <g id="ID0.9980709129013121">
    <path id="ID0.7226293026469648" fill="#E5E5E5" stroke="#E5E5E5" stroke-width="2" d="M 2.7 2.65 L 68.05 2.65 L 68.05 26.9 L 2.7 26.9 L 2.7 2.65 Z "/>
    <path id="ID0.5560490870848298" fill="#CCCCCC" stroke="#CCCCCC" stroke-width="2" stroke-linecap="round" d="M 17.2 26.85 C 15.835 27.021 18.583 26.519 19.55 26.35 C 21.918 25.936 24.317 25.671 26.7 25.35 C 28.03 25.171 29.368 25.014 30.7 24.85 C 31.399 24.764 32.107 24.727 32.8 24.6 C 33.475 24.476 34.061 24.236 34.8 24.1 C 37.756 23.558 40.745 23.15 43.7 22.6 C 45.042 22.35 46.368 22.001 47.7 21.7 C 48.433 21.535 49.169 21.374 49.9 21.2 C 50.568 21.041 51.242 20.897 51.9 20.7 C 52.576 20.497 53.222 20.196 53.9 20 C 54.606 19.796 55.349 19.72 56.05 19.5 C 56.735 19.286 57.387 18.974 58.05 18.7 C 58.719 18.424 59.408 18.185 60.05 17.85 C 61.326 17.184 62.595 16.488 63.8 15.7 C 64.383 15.318 64.847 14.775 65.4 14.35 C 65.931 13.942 66.504 13.588 67.05 13.2 C 67.603 12.806 68.363 11.528 68.7 12 C 69.363 12.928 68.972 14.665 69.05 16 C 69.089 16.665 69.05 17.334 69.05 18 C 69.05 20.065 69.05 22.135 69.05 24.2 C 69.05 24.866 69.408 25.639 69.05 26.2 C 68.682 26.778 67.871 26.961 67.2 27.1 C 66.547 27.236 65.867 27.008 65.2 27 C 63.102 26.975 60.998 27 58.9 27 C 56.07 27 53.23 27.04 50.4 27 C 49.692 26.99 49.108 26.86 48.4 26.85 C 45.57 26.81 42.731 26.85 39.9 26.85 C 37.869 26.85 35.831 26.85 33.8 26.85 C 33.134 26.85 32.466 26.825 31.8 26.85 C 31.133 26.875 30.467 26.958 29.8 27 C 29.134 27.042 28.724 27.093 27.8 27.1 C 24.104 27.128 19.96 27.396 16.7 27.1 Z "/>
    <path id="ID0.8735373928211629" fill="none" stroke="#FFFFFF" stroke-width="2" stroke-linecap="round" d="M 11.25 5.1 L 4.85 5.1 L 4.85 8.25 "/>
  </g>
  <text id="ID0.34476040909066796" fill="#000000" text-anchor="start" font-family="Sans Serif" font-size="22" transform="matrix(1 0 0 1 9.25 -2.6)" stroke-width="1" alignment-baseline="text-before-edge" xml:space="preserve"><tspan x="0" style="white-space: pre" dy="1.13em">Start</tspan></text>
  <path id="ID0.3038313970901072" fill="none" stroke="#000000" stroke-width="2" d="M 1.75 1.5 L 69.75 1.5 L 69.75 28 L 1.75 28 L 1.75 1.5 Z "/>
</svg>